# xmcd CD database file
#
# Track frame offsets:
#	150
#	21203
#	36969
#	58699
#	76863
#	95855
#	119349
#	141005
#
# Disc length: 2127 seconds
#
# Revision: 0
# Processed by: cddbd v1.5PL3 Copyright (c) Steve Scherf et al.
# Submitted via: CDex 1.51
#
DISCID=68084d08
DTITLE=The Ancient - Inca Spirit
DYEAR=2004
DGENRE=New Age
TTITLE0=Seven Moons Mph
TTITLE1=Sumane Mph
TTITLE2=Tsunami Mph
TTITLE3=Jeronimo Mph
TTITLE4=Inca Song 
TTITLE5=The Moon and the Stars Mph
TTITLE6=Desert Dreams Mph
TTITLE7=Bring the Chufleka in Mph
EXTD=YEAR: 2004
EXTT0=
EXTT1=
EXTT2=
EXTT3=
EXTT4=
EXTT5=
EXTT6=
EXTT7=
PLAYORDER=
